<svg width="43" height="44" viewBox="0 0 43 44" fill="none" xmlns="http://www.w3.org/2000/svg">
<path d="M22.2702 13.2005H19.0714V25.9958L29.201 32.0736L30.8004 29.4505L22.2702 24.3964V13.2005ZM32.5854 0L37.4977 4.09983L42.4101 8.19966L39.6804 11.4731L29.8493 3.27773L32.5854 0ZM9.82254 0L12.5565 3.2756L2.72967 11.4731L0 8.19753L9.82254 0ZM21.204 4.67029C10.6052 4.67029 2.011 13.2645 2.011 23.8633C2.011 34.462 10.6052 43.0562 21.204 43.0562C31.8027 43.0562 40.3969 34.462 40.3969 23.8633C40.3969 13.2645 31.8027 4.67029 21.204 4.67029ZM21.204 38.7911C12.9723 38.7911 6.2761 32.0949 6.2761 23.8633C6.2761 15.6316 12.9723 8.93539 21.204 8.93539C29.4356 8.93539 36.1318 15.6316 36.1318 23.8633C36.1318 32.0949 29.4356 38.7911 21.204 38.7911Z" fill="#C0D6CC"/>
</svg>
